<svg xmlns="http://www.w3.org/2000/svg" viewBox="0 0 256 256">
    <path class="path1" d="M31.045 153.266c-2.47-9.808-3.119-15.14-3.146-25.815-.035-14.03 1.65-24.45 3.954-24.454 2.836-.005 39.488 3.042 42.757 3.554 3.006.47 3.13.693 3.756 6.718.356 3.427 1.59 9.072 2.743 12.545 1.153 3.473 1.938 6.46 1.744 6.638-.194.18-11.668 5.978-25.497 12.887l-25.143 12.562zm22.663-55.269c-10.886-.962-20.044-2-20.35-2.306C31.7 94.034 40.277 76.36 47.279 67c2.263-3.025 6.55-8.066 9.526-11.203l5.41-5.703 12.643 10.123c6.953 5.568 12.821 10.263 13.04 10.435.22.172-.962 2.908-2.627 6.08-3.205 6.109-5.696 13.327-6.733 19.518-.514 3.066-1.03 3.727-2.833 3.623-1.213-.07-11.112-.914-21.997-1.876zM80.5 55.927c-6.05-4.917-11.142-9.364-11.315-9.88-.174-.517 1.566-2.127 3.866-3.58 11.606-7.326 28.384-13.913 38.453-15.096l5.19-.61 2.653 10.589c3.15 12.573 3.08 11.65.875 11.65-3.162 0-15.565 6.58-21.405 11.354-3.125 2.555-6.05 4.617-6.5 4.58-.45-.035-5.767-4.088-11.817-9.006z"
          fill="#f3a602"/>
    <path class="path2" d="M218.83 5.637c-3.372.246-10.401 4.642-24.762 15.228-9.384 6.918-17.77 12.363-19.554 12.698-2.075.389-5.625-.295-10.569-2.036-10.24-3.606-19.291-5.408-31.006-6.175-11.698-.767-11.155-1.738-7.074 12.648l2.696 9.5 5.968-.303c7.986-.405 21.117 2.036 28.065 5.217C165.7 53.836 168.7 55 169.264 55c.562 0 8.103-6.929 16.756-15.396 15.465-15.135 20.505-19.413 21.59-18.329 1.167 1.168-3.11 6.91-29.551 39.67l-27.36 33.897-3.584-1.92c-7.658-4.105-17.61-.863-21.89 7.13-2.985 5.575-2.585 11.295 1.191 17 1.473 2.227 2.336 4.56 1.936 5.233-1.297 2.18-24.218 30.36-25.684 31.576-1.16.963-2.378.141-6.522-4.392-2.802-3.067-5.878-6.9-6.835-8.522-.958-1.62-2.207-2.971-2.776-3-2.152-.108-52.49 25.613-52.512 26.832-.077 4.239 10.784 21.495 20.643 32.8 3.676 4.214 6.296 8.08 6 8.85-.289.753-5.485 8.115-11.545 16.36-15.77 21.457-17.03 23.903-13.922 27.012.66.66 1.58 1.199 2.041 1.199 2.19 0 9.726-4.88 26.104-16.902 19.753-14.5 20.404-14.744 29.595-11.121 2.758 1.087 9.638 2.93 15.288 4.095 13.078 2.698 32.955 2.298 44.949-.904 36.636-9.78 64.342-37.328 73.463-73.049 8.8-34.466-.44-70.591-24.684-96.508-3.275-3.5-5.955-7.024-5.955-7.83 0-.805 4.929-8.023 10.953-16.039 14.735-19.606 16.948-23.92 13.672-26.638-.434-.36-1.017-.524-1.795-.467zm-82.287 119.886c2.17-.09 4.018 2.739 7.924 7.973 7.176 9.618 9.033 15.787 9.033 30.004 0 11.737-.08 12.167-3.637 19.615-10.81 22.635-35.975 32.318-60.732 23.37l-7.367-2.663-14.707 14.588C53.717 231.643 50 234.638 50 232.15c0-1.78 6.392-10.093 34.46-44.82 15.93-19.706 33.926-41.975 39.993-49.486 6.754-8.361 9.63-12.217 12.09-12.32z"/>
</svg>